<?xml version="1.0" encoding="utf-8"?>
<!-- Generator: Adobe Illustrator 26.3.1, SVG Export Plug-In . SVG Version: 6.00 Build 0)  -->
<svg version="1.1" id="Layer_1" xmlns="http://www.w3.org/2000/svg" xmlns:xlink="http://www.w3.org/1999/xlink" x="0px" y="0px"
	 viewBox="0 0 600 600" style="enable-background:new 0 0 600 600;" xml:space="preserve">
<style type="text/css">
	.st0{fill:#372732;}
	.st1{fill-rule:evenodd;clip-rule:evenodd;fill:#FFFFFF;}
	.st2{fill:none;}
</style>
<g id="g4172">
	<path id="path5" class="st0" d="M300.7,599C135.7,599,2.6,465.9,2.6,300.9S135.7,3,300.7,3s297.9,133.1,297.9,297.9
		S465.5,599,300.7,599z"/>
	<path id="twitter" class="st1" d="M376.1,280.9c10.6,0,19.7-4,27.2-12.1c7.5-8,11.4-17.7,11.4-29s-3.8-20.9-11.4-29
		c-7.6-8-16.7-12.1-27.3-12.1H261.6v-41.1c0-11.3-3.7-20.9-11.3-29c-7.5-8-16.6-12.1-27-12.1c-10.9,0-20,3.9-27.5,11.9
		c-7.5,7.9-11.3,17.7-11.3,29.3v163.9c0,33.9,11.3,62.7,33.9,86.8c22.5,24,49.8,36,81.5,36h76.3c10.6,0,19.7-4,27.2-12.1
		s11.4-17.7,11.4-29c0-11.3-3.8-20.9-11.4-29c-7.5-8-16.7-12.1-27.2-12.1h-76.4c-10.6,0-19.6-3.9-27-11.9
		c-7.4-7.9-11.2-17.6-11.2-28.9V281L376.1,280.9L376.1,280.9z"/>
	<rect id="rect3343" x="184.3" y="130.8" class="st2" width="265.6" height="314.4"/>
	<rect id="rect3345" x="304" y="129" class="st2" width="4.5" height="209.4"/>
	<rect id="rect3347" x="56.6" y="47.4" class="st2" width="478.5" height="377.9"/>
</g>
</svg>
