<?xml version="1.0" encoding="utf-8"?>
<!-- Generator: Adobe Illustrator 26.3.1, SVG Export Plug-In . SVG Version: 6.00 Build 0)  -->
<svg version="1.1" id="Capa_1" xmlns="http://www.w3.org/2000/svg" xmlns:xlink="http://www.w3.org/1999/xlink" x="0px" y="0px"
	 viewBox="0 0 100 55" style="enable-background:new 0 0 100 55;" xml:space="preserve">
<style type="text/css">
	.st0{fill:#020203;}
</style>
<g>
	<g>
		<path class="st0" d="M0.5,16c7.2-2.8,14.7-5.3,22.1-7.4s15-4,22.6-5.5c3.9-0.7,7.8-1.4,11.7-1.9c2-0.2,4-0.3,5.9-0.4
			c2,0,4.1,0,6.1,0.3c0.5,0.1,1.3,0.2,1.5,0.8c0.3,0.7-1,1.4-1.4,1.7c-1.5,1-3.1,1.8-4.7,2.6c-1.7,0.7-3.5,1.4-5.2,2.1
			c-1.9,0.7-3.9,1.5-5.8,2.2c-7.6,2.9-15.2,5.8-22.8,8.6c-0.9,0.3-1.9,0.7-2.8,1.1c-0.5,0.2-0.3,1,0.2,0.8c7.8-3,15.7-6,23.4-8.8
			c3.8-1.5,7.6-2.8,11.4-4.4c1.7-0.7,3.4-1.4,5-2.3c0.8-0.5,1.6-1,2.3-1.5c0.6-0.5,1.2-1.1,1-1.9c-0.2-1.8-2.5-1.8-3.7-1.9
			C65.3,0,63.2,0,61.2,0.1c-4.1,0.2-8.1,0.8-12.1,1.6C41.3,3,33.5,4.8,25.9,6.9s-15.3,4.6-22.8,7.3c-0.9,0.3-1.9,0.7-2.8,1.1
			C-0.2,15.4,0.1,16.1,0.5,16L0.5,16z"/>
	</g>
</g>
<g>
	<g>
		<path class="st0" d="M25.1,28.6c0.4,0.7,0.7,1.4,1.1,2.2c0.2,0.3,0.3,0.7,0.5,1c0.2,0.3,0.4,0.7,0.5,1.1c0.1,0.6-0.4,0.9-1,1
			c-0.7,0.2-1.5,0.3-2.2,0.4c-3.2,0.5-6.4,1-9.4,1.4c-1.8,0.2-3.6,0.5-5.5,0.7c0.1,0.1,0.3,0.2,0.4,0.3c-0.2-0.5,0.3-1,0.6-1.4
			c0.4-0.5,0.8-0.9,1.3-1.3c0.9-0.9,1.7-1.8,2.6-2.7c1.8-1.8,3.5-3.5,5.3-5.3c0.4-0.3-0.2-0.9-0.6-0.6c-1.9,1.9-3.8,3.8-5.7,5.7
			c-0.9,1-1.9,1.9-2.8,2.9c-0.7,0.8-1.9,1.7-1.5,2.9C8.8,36.9,9,37,9.1,37c3.5-0.5,6.9-0.9,10.3-1.4c1.7-0.3,3.4-0.5,5.1-0.8
			c0.7-0.1,1.5-0.2,2.3-0.4c0.6-0.2,1.1-0.6,1.2-1.2c0.1-0.9-0.5-1.7-0.9-2.4c-0.5-0.9-0.9-1.8-1.4-2.7
			C25.5,27.7,24.8,28.1,25.1,28.6L25.1,28.6z"/>
	</g>
</g>
<g>
	<g>
		<path class="st0" d="M41.9,23.6c-2.8,0.5-5.4,1.9-6.8,4.4c-0.2,0.4-0.4,0.8-0.5,1.2c-0.3,0.8-0.1,1.6,0.7,1.9
			c0.7,0.3,1.5,0.2,2.2,0c0.9-0.2,1.8-0.6,2.7-1c2-0.9,3.8-2.1,5.3-3.6c-0.2-0.2-0.4-0.3-0.6-0.5c-1.9,2.6-3.2,5.4-4.1,8.4
			c-0.1,0.5,0.6,0.7,0.8,0.2c0.9-3,2.2-5.8,4-8.2c0.3-0.4-0.3-0.8-0.6-0.5c-1.4,1.2-2.8,2.2-4.3,3c-0.7,0.4-1.5,0.7-2.3,1
			c-0.7,0.2-1.4,0.5-2.2,0.5c-0.3,0-0.6,0-0.8-0.2c-0.3-0.2-0.3-0.5-0.2-0.8s0.2-0.6,0.5-1c0.5-0.9,1.1-1.7,1.9-2.3
			c1.3-1,2.8-1.6,4.4-1.8C42.6,24.2,42.4,23.5,41.9,23.6L41.9,23.6z"/>
	</g>
</g>
<g>
	<g>
		<path class="st0" d="M56,24.4c-1.2,0-2.4,0.2-3.5,0.6c-0.9,0.3-1.8,0.8-2.5,1.5c-0.6,0.7-1,1.5-0.7,2.5c0.7,2.4,4.5,1.9,5.6,1.5
			c0.2-0.1,0.2-0.4,0.1-0.6c-0.1-0.2-0.3-0.2-0.6-0.1c-1.4,0.6-3.8,0.5-4.4-0.9c-0.6-1.5,1.4-2.8,2.6-3.2c1-0.4,2.2-0.6,3.2-0.6
			C56.5,25.2,56.5,24.4,56,24.4L56,24.4z"/>
	</g>
</g>
<g>
	<g>
		<path class="st0" d="M67.7,17.2c-2.4,4-4.7,8.1-6.8,12.3c-0.2,0.4,0.3,0.8,0.6,0.5c1.3-1.1,2.3-2.5,3.7-3.6c0.7-0.5,1.4-1,2.2-1.3
			c0.4-0.1,0.8-0.3,1.2-0.2c0.5,0.1,0.5,0.4,0.5,0.8c-0.1,1-0.7,2-1.4,2.7c-0.3,0.4,0.2,0.9,0.6,0.6c0.7-0.8,1.3-1.7,1.5-2.8
			c0.1-0.5,0.2-1-0.1-1.5c-0.2-0.4-0.7-0.6-1.2-0.7c-1-0.1-2,0.5-2.8,0.9c-0.8,0.5-1.6,1.1-2.3,1.8c-0.8,0.8-1.3,1.6-2.2,2.4
			c0.2,0.2,0.1,0.3,0.3,0.5c2.1-4.3,4.3-8.3,6.8-12.3C68.6,17.1,68,16.7,67.7,17.2L67.7,17.2z"/>
	</g>
</g>
<g>
	<g>
		<path class="st0" d="M74.6,29.8c1.5-0.1,3.1-0.1,4.7-0.4c0.6-0.1,1.3-0.3,1.7-0.7c0.5-0.5,0.3-1-0.1-1.5c-0.6-0.7-1.8-0.6-2.6-0.5
			c-1.1,0.2-2.2,0.6-3.2,1.2c-1,0.6-1.9,1.2-2.7,2.1c-0.4,0.4-0.7,1-0.6,1.6c0.2,0.6,0.7,0.8,1.3,0.9c3.1,0.4,6.4-0.5,9.1-1.8
			c0.5-0.2,0.1-0.9-0.4-0.7c-2.2,1-4.6,1.7-6.9,1.8c-0.6,0-1.2,0-1.8-0.1c-0.2,0-0.5-0.1-0.5-0.3c-0.1-0.2,0.1-0.5,0.2-0.6
			c0.3-0.4,0.7-0.7,1-1c0.4-0.3,0.8-0.6,1.2-0.9c0.8-0.5,1.7-0.9,2.7-1.2c0.8-0.2,1.6-0.3,2.4-0.1c0.2,0.1,0.3,0.3,0.3,0.4
			c0,0,0,0,0,0.1c0-0.1,0,0.1,0,0.1c0.1-0.1,0,0-0.1,0.1c-0.3,0.2-0.9,0.4-1.3,0.5c-1.4,0.3-3,0.3-4.4,0.4
			C74.1,29.2,74.1,29.9,74.6,29.8L74.6,29.8z"/>
	</g>
</g>
<g>
	<g>
		<path class="st0" d="M89.7,27.7c-0.9,0.1-1.8,0.2-2.6,0.5c-0.8,0.3-1.7,0.6-2.2,1.4c-0.2,0.3-0.3,0.6-0.3,1.1c0,0.6,0.4,1.1,1,1.4
			c1.2,0.6,2.6,0.5,3.8,0.2c1.7-0.4,3.5-1,5.1-1.6c-0.1-0.2-0.2-0.3-0.3-0.5c-1.1,0.7-1.8,1.6-1.6,2.9c0.1,1.2,0.9,2.2,2.1,2.7
			c1.3,0.6,2.7,0.4,3.8-0.4c1.1-0.9,1.7-2.4,1.3-3.8c-0.4-1.2-1.5-2.5-2.9-2.3c-0.2,0-0.4,0.2-0.4,0.4c0,0.2,0.2,0.4,0.4,0.4
			c0.9-0.1,1.7,0.6,2,1.4c0.5,1,0.2,2.2-0.6,3c-0.8,0.8-1.8,1-2.9,0.7c-0.8-0.2-1.6-0.9-1.8-1.7c-0.3-1.2,0.1-2.2,1.1-2.8
			c0.4-0.2,0.1-0.9-0.3-0.7c-1.3,0.5-2.6,0.9-3.9,1.3c-1.1,0.3-2.3,0.7-3.5,0.5c-1.8-0.2-1.5-1.3-1.3-1.6c0.4-0.8,3.3-1.4,4.1-1.5
			C90.2,28.5,90.3,27.7,89.7,27.7L89.7,27.7z"/>
	</g>
</g>
<g>
	<g>
		<path class="st0" d="M90.2,41.3c-8-0.5-16.1-0.2-24,0.9c-7.9,1-15.8,2.8-23.4,5.4c-2,0.7-4,1.3-6,2.2c-1.8,0.8-3.6,1.8-5,3.2
			c-0.3,0.3-0.1,0.6,0.3,0.7c2.8,0.3,11.7-1.1,13.5-1.2c3.9-0.4,7.7-0.7,11.6-0.8c4.2-0.1,8.2-0.2,12.4,0c3.9,0.1,7.7,0.4,11.5,1
			c3.1,0.5,6,1.1,9.1,2.1c-1.6-1-5.9-2.3-8.6-2.7c-3.8-0.6-6.6-0.9-10.4-1.1c-4.2-0.2-8.3-0.2-12.4-0.1c-4,0.1-7.9,0.3-11.8,0.7
			c-1.7,0.2-3.5,0.4-5.2,0.6c-2.6,0.2-5.2,0.8-7.7,0.8c-0.7,0-1.4-0.1-2.1-0.1c0.1,0.2,0.2,0.5,0.3,0.7c2.5-2.6,6.2-3.8,9.4-4.9
			c3.8-1.3,7.5-2.4,11.5-3.3c7.6-1.8,15.6-3,23.4-3.3c4.5-0.2,8.9-0.2,13.4,0.1C90.8,42.1,90.8,41.3,90.2,41.3L90.2,41.3z"/>
	</g>
</g>
</svg>
